<svg id="visual" viewBox="0 0 900 600" width="900" height="600" xmlns="http://www.w3.org/2000/svg" xmlns:xlink="http://www.w3.org/1999/xlink" version="1.1"><rect x="0" y="0" width="900" height="600" >
<style>
    svg {
        fill:  #0d1117  
    }
    @media (prefers-color-scheme: light) {
        svg {
            fill: white;
            opacity: 0.7;
        }
    }
</style>
</rect><defs><linearGradient id="grad1_0" x1="33.3%" y1="100%" x2="100%" y2="0%"><stop offset="20%" stop-color="#009473" stop-opacity="1"></stop><stop offset="80%" stop-color="#009473" stop-opacity="1"></stop></linearGradient></defs><defs><linearGradient id="grad1_1" x1="33.3%" y1="100%" x2="100%" y2="0%"><stop offset="20%" stop-color="#009473" stop-opacity="1"></stop><stop offset="80%" stop-color="#00666d" stop-opacity="1"></stop></linearGradient></defs><defs><linearGradient id="grad1_2" x1="33.3%" y1="100%" x2="100%" y2="0%"><stop offset="20%" stop-color="#003a4f" stop-opacity="1"></stop><stop offset="80%" stop-color="#00666d" stop-opacity="1"></stop></linearGradient></defs><defs><linearGradient id="grad1_3" x1="33.3%" y1="100%" x2="100%" y2="0%"><stop offset="20%" stop-color="#003a4f" stop-opacity="1"></stop><stop offset="80%" stop-color="#001122" stop-opacity="1"></stop></linearGradient></defs><defs><linearGradient id="grad2_0" x1="0%" y1="100%" x2="66.7%" y2="0%"><stop offset="20%" stop-color="#009473" stop-opacity="1"></stop><stop offset="80%" stop-color="#009473" stop-opacity="1"></stop></linearGradient></defs><defs><linearGradient id="grad2_1" x1="0%" y1="100%" x2="66.7%" y2="0%"><stop offset="20%" stop-color="#00666d" stop-opacity="1"></stop><stop offset="80%" stop-color="#009473" stop-opacity="1"></stop></linearGradient></defs><defs><linearGradient id="grad2_2" x1="0%" y1="100%" x2="66.7%" y2="0%"><stop offset="20%" stop-color="#00666d" stop-opacity="1"></stop><stop offset="80%" stop-color="#003a4f" stop-opacity="1"></stop></linearGradient></defs><defs><linearGradient id="grad2_3" x1="0%" y1="100%" x2="66.7%" y2="0%"><stop offset="20%" stop-color="#001122" stop-opacity="1"></stop><stop offset="80%" stop-color="#003a4f" stop-opacity="1"></stop></linearGradient></defs><g transform="translate(900, 600)"><path d="M-378.6 0C-380.1 -35.5 -381.6 -71.1 -365.7 -98C-349.7 -124.9 -316.3 -143.1 -299.6 -173C-283 -202.9 -283 -244.3 -260.2 -260.2C-237.4 -276.1 -191.6 -266.6 -162 -280.6C-132.4 -294.6 -118.8 -332.3 -94.5 -352.6C-70.1 -372.8 -35.1 -375.7 0 -378.6L0 0Z" fill="#002539"></path><path d="M-283.9 0C-285.1 -26.7 -286.2 -53.3 -274.3 -73.5C-262.3 -93.7 -237.2 -107.4 -224.7 -129.7C-212.2 -152.1 -212.3 -183.2 -195.2 -195.2C-178 -207.1 -143.7 -199.9 -121.5 -210.4C-99.3 -221 -89.1 -249.2 -70.9 -264.4C-52.6 -279.6 -26.3 -281.8 0 -283.9L0 0Z" fill="#005060"></path><path d="M-189.3 0C-190.1 -17.8 -190.8 -35.5 -182.8 -49C-174.9 -62.4 -158.2 -71.6 -149.8 -86.5C-141.5 -101.4 -141.5 -122.1 -130.1 -130.1C-118.7 -138.1 -95.8 -133.3 -81 -140.3C-66.2 -147.3 -59.4 -166.1 -47.2 -176.3C-35.1 -186.4 -17.5 -187.9 0 -189.3L0 0Z" fill="#007d73"></path><path d="M-94.6 0C-95 -8.9 -95.4 -17.8 -91.4 -24.5C-87.4 -31.2 -79.1 -35.8 -74.9 -43.2C-70.7 -50.7 -70.8 -61.1 -65.1 -65.1C-59.3 -69 -47.9 -66.6 -40.5 -70.1C-33.1 -73.7 -29.7 -83.1 -23.6 -88.1C-17.5 -93.2 -8.8 -93.9 0 -94.6L0 0Z" fill="#009473"></path></g><g transform="translate(0, 0)"><path d="M378.6 0C352.2 26.2 325.8 52.5 322.6 86.4C319.4 120.4 339.4 162.2 327.9 189.3C316.4 216.4 273.4 229 241.1 241.1C208.8 253.3 187.2 265 166 287.5C144.8 310 124.1 343.3 96.5 360.3C69 377.3 34.5 377.9 0 378.6L0 0Z" fill="#002539"></path><path d="M283.9 0C264.2 19.7 244.4 39.3 242 64.8C239.6 90.3 254.5 121.6 245.9 142C237.3 162.3 205.1 171.7 180.8 180.8C156.6 190 140.4 198.8 124.5 215.6C108.6 232.5 93.1 257.5 72.4 270.2C51.7 282.9 25.9 283.4 0 283.9L0 0Z" fill="#005060"></path><path d="M189.3 0C176.1 13.1 162.9 26.2 161.3 43.2C159.7 60.2 169.7 81.1 163.9 94.6C158.2 108.2 136.7 114.5 120.6 120.6C104.4 126.6 93.6 132.5 83 143.8C72.4 155 62.1 171.7 48.3 180.1C34.5 188.6 17.2 189 0 189.3L0 0Z" fill="#007d73"></path><path d="M94.6 0C88.1 6.6 81.5 13.1 80.7 21.6C79.9 30.1 84.8 40.5 82 47.3C79.1 54.1 68.4 57.2 60.3 60.3C52.2 63.3 46.8 66.3 41.5 71.9C36.2 77.5 31 85.8 24.1 90.1C17.2 94.3 8.6 94.5 0 94.6L0 0Z" fill="#009473"></path></g></svg>