<?xml version="1.0" standalone="no"?>
<!DOCTYPE svg PUBLIC "-//W3C//DTD SVG 20010904//EN"
 "http://www.w3.org/TR/2001/REC-SVG-20010904/DTD/svg10.dtd">
<svg version="1.0" xmlns="http://www.w3.org/2000/svg"
 width="100%" height="100%" viewBox="0 0 1024.000000 1024.000000"
 preserveAspectRatio="xMidYMid meet">

<g transform="translate(0.000000,1024.000000) scale(0.100000,-0.100000)"
fill="#000000" stroke="none">
<path d="M5705 10006 c-16 -7 -57 -30 -90 -51 -33 -22 -116 -68 -185 -103 -69
-36 -141 -73 -161 -84 -45 -24 -69 -15 -126 44 -23 25 -61 53 -83 63 -48 22 1
31 -505 -95 -170 -43 -356 -87 -412 -100 -56 -12 -147 -37 -202 -55 -55 -18
-126 -39 -158 -46 -32 -7 -101 -30 -153 -52 -52 -21 -117 -47 -144 -57 -55
-22 -186 -97 -186 -108 0 -4 -28 -25 -61 -46 l-61 -39 -51 18 c-29 10 -87 40
-130 66 -111 70 -110 70 -203 -52 -88 -115 -141 -177 -190 -222 -39 -34 -39
-35 -92 -24 -34 7 -59 8 -68 2 -22 -14 -55 -113 -52 -153 3 -44 -12 -52 -102
-52 -41 0 -92 -5 -114 -11 -46 -13 -90 -53 -82 -75 19 -50 -39 -102 -156 -140
-89 -30 -93 -30 -149 0 -25 14 -73 28 -106 31 -56 7 -61 6 -67 -13 -5 -15 4
-37 28 -74 53 -80 88 -222 84 -340 l-3 -93 -105 -6 c-125 -8 -176 -26 -208
-74 l-22 -35 20 -40 c12 -23 34 -47 53 -56 50 -26 116 -83 133 -116 23 -44 20
-115 -6 -150 -12 -16 -19 -36 -16 -43 8 -21 53 -29 83 -16 24 11 24 10 18 -18
-3 -16 -21 -65 -39 -108 -18 -43 -43 -108 -55 -146 l-23 -67 31 -65 c49 -107
49 -120 -3 -190 -25 -33 -46 -66 -46 -74 0 -7 11 -22 25 -32 20 -17 23 -24 15
-45 -15 -39 -86 -130 -122 -155 -18 -13 -40 -30 -48 -37 -8 -7 -26 -21 -39
-31 -18 -13 -22 -23 -16 -40 6 -21 10 -21 68 -14 119 15 186 8 252 -26 72 -37
81 -44 121 -96 55 -72 64 -110 64 -274 0 -138 2 -150 23 -182 l23 -34 89 0
c76 0 95 -3 120 -22 51 -36 81 -74 130 -163 25 -47 54 -94 64 -105 10 -11 24
-31 31 -45 7 -14 29 -47 49 -75 42 -58 53 -76 82 -129 l21 -39 -24 8 c-45 14
-195 18 -232 5 -42 -14 -107 -73 -124 -113 -20 -47 -14 -201 12 -297 13 -47
30 -101 39 -120 8 -19 18 -53 22 -75 4 -22 13 -58 21 -79 9 -22 20 -78 25
-125 11 -102 33 -211 53 -267 10 -29 12 -54 5 -90 -83 -485 -90 -576 -49 -669
41 -96 112 -128 313 -141 100 -6 118 -12 123 -39 37 -191 62 -348 69 -428 6
-72 36 -271 70 -467 46 -269 60 -306 155 -410 27 -30 66 -79 87 -107 20 -29
39 -53 43 -53 4 0 28 -29 54 -64 25 -34 56 -72 67 -82 44 -40 50 -64 40 -186
-5 -62 -14 -124 -19 -138 -6 -14 -42 -64 -82 -110 -39 -47 -81 -96 -92 -110
-12 -14 -34 -47 -51 -75 -16 -27 -45 -69 -63 -92 -19 -23 -44 -62 -54 -86 -11
-25 -27 -50 -36 -57 -8 -8 -21 -25 -29 -40 -7 -14 -32 -48 -54 -75 -22 -27
-48 -65 -57 -85 -24 -52 -140 -235 -196 -311 -53 -71 -102 -105 -222 -153 -91
-36 -265 -147 -334 -214 l-54 -52 53 0 c50 0 60 4 129 57 66 49 119 80 335
192 68 35 94 56 159 132 56 67 110 153 138 225 9 23 30 56 46 74 27 29 65 87
146 220 100 164 277 392 293 377 2 -3 -1 -58 -7 -123 -25 -286 -32 -473 -26
-769 3 -171 8 -327 12 -347 6 -35 9 -38 41 -38 l34 0 -8 117 c-23 325 8 1206
46 1305 6 15 15 62 20 104 5 41 11 78 14 80 10 10 43 -19 77 -67 19 -28 54
-77 77 -111 23 -34 55 -75 71 -92 16 -17 62 -76 102 -130 40 -55 89 -118 109
-140 20 -23 45 -54 56 -71 10 -16 27 -36 37 -43 10 -7 36 -40 58 -72 22 -33
56 -71 75 -85 19 -15 47 -46 62 -70 15 -24 39 -50 54 -59 15 -9 39 -31 53 -49
45 -55 57 -66 90 -73 40 -9 180 -55 280 -93 176 -67 354 -84 836 -79 301 3
317 4 355 25 22 12 56 37 76 57 20 19 62 53 94 75 64 43 243 202 394 351 53
53 114 108 136 124 22 16 65 54 96 85 31 31 87 83 124 116 38 33 101 93 139
134 164 171 246 251 256 251 13 0 13 -51 -1 -87 -11 -28 -52 -259 -64 -363 -4
-30 -13 -93 -21 -139 -8 -46 -14 -134 -15 -195 0 -61 -4 -133 -8 -161 -21
-132 -71 -272 -112 -311 -29 -28 -29 -54 1 -54 23 0 105 89 125 136 25 59 53
189 60 280 4 44 10 86 14 93 10 16 51 -52 79 -129 22 -62 60 -159 91 -237 11
-29 27 -92 35 -140 8 -49 22 -126 30 -173 9 -47 16 -91 16 -97 0 -8 15 -13 39
-13 l40 0 -6 58 c-2 31 -13 91 -23 132 -9 41 -23 104 -30 140 -7 36 -28 101
-45 146 -18 44 -36 96 -40 115 -4 18 -11 40 -16 49 -23 44 -99 221 -99 232 0
7 -13 38 -29 70 -27 53 -28 60 -20 135 11 104 27 185 40 198 9 9 21 -1 162
-154 35 -38 507 -499 590 -576 42 -38 110 -101 153 -140 42 -38 102 -94 133
-124 31 -29 72 -66 91 -81 19 -16 76 -67 125 -114 84 -80 93 -86 133 -86 l43
0 -21 30 c-12 17 -25 30 -29 30 -5 0 -24 20 -44 45 -19 25 -55 60 -79 76 -23
17 -68 56 -99 88 -31 31 -88 84 -125 118 -194 174 -246 223 -329 307 -50 50
-174 172 -275 271 -102 99 -238 236 -304 305 l-118 125 7 40 c4 22 14 100 24
173 9 73 21 136 27 140 21 14 172 218 194 262 12 25 26 47 30 50 52 37 216
448 240 604 6 38 13 73 16 78 3 5 14 41 24 81 29 114 61 221 71 233 6 7 65 13
157 17 221 7 340 50 470 171 57 52 94 145 103 255 17 203 49 387 85 496 26 82
54 248 54 329 0 44 8 73 41 143 61 129 79 224 79 415 0 184 -6 205 -76 274
-60 59 -114 84 -186 84 -40 0 -58 4 -58 13 0 31 24 95 47 125 13 18 35 56 48
85 13 28 41 85 63 124 22 40 43 87 47 104 4 17 20 59 36 94 16 35 37 95 48
134 26 94 42 117 120 176 58 44 73 63 123 154 31 57 68 136 82 175 23 64 24
73 10 94 -11 17 -24 22 -58 22 l-43 0 2 119 1 118 39 39 c20 22 44 53 51 71 9
20 34 45 69 68 65 41 95 85 95 139 0 34 -7 46 -48 85 -26 26 -72 82 -102 126
l-55 80 1 97 c1 81 5 103 24 133 23 37 72 68 126 79 43 10 72 42 58 64 -20 31
-58 25 -148 -23 -105 -56 -128 -56 -133 0 -24 270 -41 307 -124 267 -42 -20
-217 -58 -226 -48 -12 12 22 237 54 350 26 93 33 133 26 145 -8 12 -34 17
-114 22 -110 6 -145 18 -236 81 -48 33 -114 58 -150 58 -20 0 -24 3 -18 18 60
138 49 194 -48 237 -29 12 -79 28 -112 35 -60 12 -191 76 -232 113 -13 11 -23
30 -23 41 0 33 -37 99 -84 148 -51 53 -138 100 -226 123 -72 19 -250 22 -306
5 -38 -11 -42 -10 -126 39 -48 27 -113 71 -145 97 -101 82 -219 208 -240 254
-11 25 -41 70 -66 101 -37 45 -55 59 -91 68 -107 27 -247 5 -418 -65 -61 -25
-116 -43 -124 -40 -11 4 -14 28 -14 95 0 96 -7 113 -57 132 -33 12 -62 11 -98
-5z m67 -157 c3 -85 5 -92 31 -115 39 -33 81 -31 169 9 122 56 233 80 347 75
107 -4 122 -10 147 -63 8 -18 30 -50 48 -71 18 -22 43 -58 54 -80 12 -24 53
-68 97 -105 41 -35 75 -67 75 -71 0 -4 21 -19 48 -34 26 -15 75 -47 108 -71
96 -67 124 -76 195 -62 84 17 249 7 322 -19 34 -12 82 -41 112 -67 50 -42 65
-66 109 -171 22 -51 110 -107 241 -154 165 -59 180 -65 191 -88 17 -34 6 -67
-37 -116 -22 -24 -39 -48 -39 -53 0 -22 41 -44 99 -54 37 -6 117 -34 197 -70
99 -45 152 -63 195 -66 33 -3 62 -9 64 -13 2 -4 -4 -38 -15 -76 -42 -152 -65
-415 -38 -442 16 -16 55 -15 114 3 27 9 69 20 94 25 25 5 55 12 66 16 20 5 23
0 33 -46 6 -28 11 -91 11 -141 l0 -89 33 -20 c17 -11 35 -21 38 -22 3 -2 9
-48 13 -104 7 -115 18 -158 44 -188 26 -30 137 -187 152 -215 11 -22 10 -27
-9 -40 -55 -39 -92 -75 -121 -120 -17 -28 -43 -54 -58 -59 -15 -5 -54 -34 -87
-64 -54 -50 -58 -57 -45 -73 10 -12 23 -15 48 -11 l35 5 -6 -77 c-3 -42 -12
-96 -20 -119 -13 -38 -13 -44 3 -58 10 -9 35 -15 63 -15 31 0 47 -4 47 -12 0
-7 -24 -60 -52 -118 -54 -105 -97 -159 -199 -242 -39 -31 -47 -44 -58 -95 -19
-83 -49 -168 -87 -245 -19 -37 -34 -74 -34 -82 0 -14 -35 -85 -118 -236 -22
-41 -46 -97 -53 -125 -13 -54 -22 -65 -55 -65 -29 0 -49 -25 -74 -92 -11 -31
-32 -71 -45 -90 -14 -18 -31 -46 -39 -63 l-15 -30 1 35 c2 51 -14 174 -22 180
-13 8 7 528 24 620 27 152 37 277 39 473 l2 192 -61 75 c-34 41 -87 113 -118
160 -172 260 -198 293 -293 370 -53 43 -133 93 -203 129 -63 31 -162 83 -220
113 -58 31 -116 59 -130 63 -14 4 -61 25 -105 47 -44 22 -131 60 -194 84 -62
23 -123 52 -135 62 -11 11 -55 31 -96 45 -67 23 -111 33 -233 52 -33 5 -36 8
-27 25 16 30 -4 58 -53 71 -27 7 -149 12 -344 13 l-301 1 -24 29 c-12 16 -27
37 -33 46 -50 82 -102 111 -131 73 -19 -28 -194 -29 -396 -4 -243 30 -257 29
-259 -13 0 -14 -16 -31 -48 -52 l-48 -31 -28 20 c-25 19 -38 20 -241 14 -206
-5 -216 -6 -257 -31 -29 -16 -52 -41 -68 -71 -23 -43 -26 -45 -54 -38 -16 5
-68 8 -115 8 -80 0 -90 -3 -170 -42 -74 -37 -101 -44 -209 -58 -115 -15 -131
-19 -218 -65 -51 -27 -117 -54 -148 -59 -31 -6 -61 -13 -66 -17 -11 -6 -71
-133 -84 -176 -4 -13 -26 -57 -49 -98 -42 -77 -60 -119 -122 -275 -20 -49 -44
-101 -53 -115 -23 -33 -71 -147 -71 -168 0 -9 -16 -62 -36 -117 -71 -203 -83
-258 -93 -450 -6 -99 -8 -213 -4 -252 4 -55 2 -83 -11 -115 -27 -71 -46 -156
-46 -203 0 -53 -9 -56 -33 -15 -10 16 -48 69 -84 117 -37 49 -75 105 -85 125
-24 50 -132 205 -172 246 -46 50 -63 57 -156 62 l-85 5 -6 162 c-4 100 -11
174 -20 195 -20 51 -75 123 -117 153 -20 16 -41 33 -47 40 -25 28 -130 78
-173 82 -56 4 -62 9 -34 29 12 8 22 21 22 27 0 7 12 23 26 36 32 31 60 86 70
136 4 24 21 55 40 78 39 42 45 72 14 64 -18 -5 -20 0 -20 40 0 28 -10 66 -24
97 -45 96 -40 141 38 291 25 49 46 96 46 105 0 9 -18 44 -40 78 -31 47 -40 71
-40 103 0 61 -45 126 -132 189 l-71 52 21 20 c24 25 83 37 178 38 62 0 73 3
93 24 20 21 24 39 28 113 6 91 -15 245 -44 327 -7 22 -11 41 -9 43 2 3 22 -7
45 -21 46 -29 72 -32 104 -12 12 8 55 22 96 30 40 9 84 22 97 31 36 23 74 86
82 136 l7 44 134 6 c162 6 171 12 171 115 0 34 4 65 9 68 5 3 32 -1 61 -10 47
-14 54 -14 76 1 13 8 27 28 30 43 4 15 23 45 43 67 20 22 64 76 97 120 34 44
71 89 83 99 22 20 22 20 75 -7 29 -15 59 -27 67 -27 8 0 41 -13 74 -30 70 -35
87 -33 163 19 29 20 65 43 81 52 15 8 52 30 80 49 71 45 161 87 229 106 59 16
95 27 301 94 68 22 130 40 137 40 13 0 94 21 219 56 52 14 154 38 240 55 28 6
77 19 110 28 33 10 94 26 135 36 41 9 103 26 137 36 76 23 88 19 172 -51 73
-61 116 -76 167 -60 32 11 257 126 329 169 95 56 131 74 167 80 3 0 8 -40 10
-90z m-667 -2009 c31 -7 118 -10 227 -8 l178 3 28 -35 c16 -19 37 -50 46 -67
21 -42 55 -50 164 -41 109 9 436 9 482 -1 33 -6 35 -9 32 -43 -3 -35 -2 -37
35 -47 21 -5 67 -13 103 -17 95 -10 180 -39 335 -114 160 -77 189 -90 203 -90
17 0 367 -170 477 -232 44 -25 111 -63 149 -84 90 -51 224 -191 268 -281 17
-35 35 -66 39 -69 5 -3 36 -44 69 -92 34 -48 82 -111 106 -141 l46 -54 -7
-161 c-8 -220 -22 -375 -43 -476 -14 -70 -17 -142 -17 -420 l0 -335 -65 3
c-61 4 -68 2 -90 -22 -14 -15 -43 -36 -65 -48 -22 -11 -54 -36 -71 -54 -17
-19 -35 -34 -40 -34 -9 0 -69 112 -98 182 -8 20 -33 60 -55 88 -23 29 -41 57
-41 62 0 6 -42 52 -93 102 -132 129 -300 238 -414 266 -22 6 -63 28 -90 51
-59 49 -141 89 -257 124 l-89 27 69 25 c108 39 286 83 335 83 18 0 108 -57
149 -94 14 -13 32 -27 41 -32 18 -10 128 -105 201 -174 26 -25 53 -50 60 -56
7 -6 34 -34 59 -63 31 -34 52 -49 62 -45 28 10 28 35 -1 68 -15 18 -38 49 -51
69 -12 20 -27 37 -32 37 -5 0 -40 30 -79 68 -142 137 -375 312 -398 298 -4 -2
-52 -12 -107 -21 -55 -9 -145 -30 -200 -47 -76 -23 -132 -33 -235 -40 -74 -5
-172 -18 -217 -29 -45 -10 -97 -19 -114 -19 l-32 0 33 23 c19 12 33 27 32 32
-2 20 -34 16 -65 -7 -91 -68 -156 -91 -292 -104 -104 -10 -115 -16 -115 -63 0
-65 4 -65 295 -22 83 12 199 22 285 23 122 1 133 3 70 8 l-75 6 98 2 c71 2 97
-1 98 -10 0 -10 2 -10 5 -1 6 13 30 11 159 -13 89 -17 165 -42 165 -55 0 -5
-28 -9 -62 -9 -73 0 -214 -22 -278 -44 -111 -37 -175 -65 -208 -92 -20 -16
-58 -42 -84 -59 -59 -38 -198 -170 -198 -188 0 -8 -17 -32 -37 -53 -20 -21
-54 -77 -75 -124 -21 -47 -43 -93 -48 -103 -22 -37 -58 -175 -65 -242 -11
-107 -7 -239 10 -310 37 -159 204 -450 288 -500 15 -9 58 -44 95 -77 66 -59
111 -84 267 -151 133 -57 215 -71 389 -64 165 5 224 20 376 89 114 53 176 97
286 204 99 98 180 210 205 285 7 19 15 39 19 44 13 20 49 121 65 185 13 50 16
103 13 229 l-3 164 60 54 c131 120 164 132 233 85 45 -30 92 -33 92 -6 0 9 8
12 28 8 45 -9 92 31 134 115 20 41 42 77 48 81 6 4 55 10 108 13 89 5 99 4
138 -19 74 -43 116 -173 79 -243 -14 -28 -15 -39 -4 -81 10 -39 10 -60 0 -105
-12 -52 -15 -56 -36 -51 -33 8 -40 -21 -21 -79 25 -73 17 -97 -8 -27 -13 35
-26 65 -29 68 -2 3 -12 -8 -22 -23 -16 -24 -17 -40 -9 -167 16 -249 10 -317
-44 -501 -24 -83 -68 -347 -76 -459 -4 -54 -12 -89 -26 -112 -32 -50 -124
-130 -184 -158 -85 -40 -224 -67 -330 -64 -91 3 -91 3 -88 28 4 33 57 225 89
318 22 69 23 76 8 98 -8 13 -20 24 -25 24 -15 0 -36 -40 -58 -110 -117 -377
-122 -394 -166 -585 -37 -158 -106 -416 -116 -436 -5 -9 -14 -37 -19 -61 -11
-49 -145 -333 -162 -344 -6 -3 -32 -38 -57 -78 -39 -61 -105 -150 -123 -166
-3 -3 -18 -23 -35 -45 -66 -90 -147 -186 -164 -195 -11 -6 -33 -31 -50 -55
-35 -51 -257 -275 -272 -275 -5 0 -35 -26 -67 -58 -31 -31 -75 -73 -96 -92
-22 -19 -62 -54 -90 -79 -86 -75 -256 -232 -352 -325 -50 -48 -104 -97 -120
-107 -44 -30 -126 -86 -153 -107 -70 -53 -61 -52 -462 -48 -389 4 -453 9 -618
55 -123 33 -159 45 -287 95 -116 45 -123 50 -165 103 -24 31 -54 65 -68 77
-27 24 -44 41 -134 142 -35 39 -69 81 -76 93 -6 13 -28 37 -47 54 -19 16 -44
49 -55 71 -11 23 -46 68 -77 101 -31 34 -77 92 -102 130 -26 39 -57 79 -69 90
-12 11 -42 49 -66 85 -24 36 -75 103 -114 150 -39 47 -83 102 -98 124 -15 21
-48 62 -73 90 -25 28 -54 63 -65 77 -10 14 -49 59 -86 100 -132 147 -149 181
-168 349 -6 58 -29 215 -50 350 -22 135 -49 306 -60 380 -12 74 -25 151 -30
170 -5 19 -14 76 -20 125 -12 102 -30 207 -71 416 -16 81 -29 152 -29 158 0 6
33 -21 73 -62 39 -41 95 -87 122 -103 28 -15 55 -33 60 -40 35 -39 155 -92
285 -125 101 -26 339 -34 361 -11 7 6 29 12 48 12 31 0 112 22 195 53 16 6 54
30 86 53 32 23 71 49 87 57 46 24 175 153 210 210 109 177 139 243 178 393 19
75 25 121 25 209 0 130 0 130 91 151 35 8 68 19 73 23 6 5 29 12 51 16 22 4
66 21 97 36 60 30 99 36 141 20 30 -12 67 17 67 52 0 30 9 41 50 63 27 14 64
19 162 22 70 2 143 1 163 -2 47 -9 73 -39 81 -95 9 -63 39 -120 67 -125 54
-11 98 -15 182 -17 89 -2 90 -2 99 24 6 15 7 29 3 33 -3 4 -48 8 -99 11 -107
5 -160 16 -179 39 -7 9 -16 46 -20 82 -5 50 -12 70 -28 83 -38 31 -161 52
-279 47 -140 -6 -201 -26 -248 -83 -25 -31 -45 -45 -72 -50 -20 -4 -86 -25
-147 -48 -60 -22 -143 -48 -183 -58 l-74 -17 -18 31 c-10 16 -31 69 -46 116
-31 100 -43 125 -79 166 -15 17 -35 46 -46 65 -23 44 -128 153 -194 202 -106
80 -154 106 -270 149 l-120 44 -175 0 c-155 0 -182 -3 -240 -22 -36 -13 -92
-32 -125 -43 -33 -11 -78 -30 -100 -42 -69 -38 -197 -133 -259 -192 -44 -43
-61 -54 -68 -44 -12 19 0 210 19 293 9 39 24 82 33 98 15 24 17 55 14 235 -3
210 3 275 42 431 25 103 137 407 178 487 9 16 16 34 16 39 0 10 113 254 157
340 87 168 98 186 123 192 14 3 73 28 133 54 130 59 196 79 256 79 48 0 107
17 169 49 44 22 128 41 180 41 20 0 56 -9 80 -20 40 -18 46 -18 72 -5 16 8 44
36 62 63 58 85 57 84 167 93 55 4 144 9 197 10 107 3 97 8 147 -71 26 -40 70
-61 89 -42 9 9 9 20 -1 47 -20 57 16 85 66 50 11 -8 38 -17 59 -21 32 -5 43
-2 59 16 19 21 19 23 2 52 -9 16 -17 33 -17 37 0 9 103 -3 175 -19z m-3515
-910 c0 -5 -4 -10 -10 -10 -5 0 -10 5 -10 10 0 6 5 10 10 10 6 0 10 -4 10 -10z
m1975 -1349 c100 -11 177 -38 252 -88 32 -21 71 -45 87 -53 15 -8 53 -37 83
-65 31 -27 66 -59 78 -70 12 -11 35 -39 50 -62 15 -24 31 -43 35 -43 4 0 24
-39 44 -87 20 -49 43 -100 51 -115 19 -33 19 -35 -5 -41 -30 -8 -25 -36 20
-110 l40 -66 0 -120 c0 -91 -5 -134 -20 -183 -11 -34 -20 -69 -20 -76 0 -7
-11 -37 -24 -65 -13 -29 -38 -81 -54 -117 -16 -36 -52 -93 -81 -128 -28 -35
-51 -67 -51 -72 0 -4 -20 -21 -44 -37 -24 -16 -65 -48 -92 -72 -56 -49 -210
-122 -323 -152 -106 -29 -335 -24 -428 9 -98 35 -245 109 -283 143 -19 17 -56
44 -82 61 -27 16 -48 34 -48 39 0 5 -25 36 -55 69 -68 74 -159 251 -180 351
-9 43 -15 125 -15 214 0 121 -3 146 -17 164 -15 19 -21 20 -35 9 -31 -22 -41
-116 -29 -259 9 -105 16 -141 44 -210 33 -82 73 -236 64 -245 -7 -7 -110 127
-128 167 -9 20 -20 52 -24 70 -4 19 -18 68 -32 109 -13 41 -30 116 -37 165
-12 77 -12 98 0 145 23 88 19 134 -15 172 l-29 33 5 -28 c3 -15 3 -27 -1 -27
-9 0 -57 108 -67 150 -35 148 -34 191 7 240 48 57 157 70 240 29 41 -20 54
-33 76 -80 31 -64 28 -99 -7 -99 -46 0 -43 -60 5 -80 36 -15 64 -7 77 23 6 12
17 38 26 57 34 76 174 217 292 294 47 31 87 56 89 56 3 0 37 15 78 34 91 43
105 46 220 55 103 8 146 6 263 -8z m3395 -58 c72 -26 148 -61 179 -82 166
-112 196 -137 281 -238 74 -88 169 -256 194 -345 24 -83 46 -208 46 -263 0
-90 -46 -279 -88 -363 -89 -178 -170 -274 -327 -387 -128 -91 -214 -129 -375
-160 -456 -90 -952 231 -1081 700 -32 117 -28 347 7 432 8 18 14 43 14 55 0
28 73 184 121 258 108 166 317 324 509 385 41 13 84 26 95 29 11 2 99 3 195 2
145 -3 184 -7 230 -23z m-4567 -1373 c10 -16 54 -65 98 -109 65 -65 81 -87 88
-122 54 -263 76 -398 66 -407 -19 -19 -247 12 -294 40 -87 54 -95 163 -27 408
8 30 20 92 27 138 6 45 14 82 18 82 4 0 15 -13 24 -30z"/>
<path d="M3580 6119 c-96 -35 -106 -37 -222 -49 -136 -13 -224 -33 -292 -65
-57 -26 -145 -98 -188 -153 -95 -124 -90 -114 -72 -133 28 -31 58 -9 158 114
41 50 126 104 207 131 26 9 112 25 192 35 79 11 173 29 207 40 42 14 89 21
141 21 74 0 248 -31 369 -66 55 -16 164 -63 158 -69 -2 -2 -73 -6 -158 -10
-310 -12 -430 -24 -635 -60 -102 -18 -274 -44 -292 -45 -18 0 -16 -39 1 -46
17 -6 146 10 286 37 147 28 393 48 680 55 199 5 248 9 263 22 39 34 15 57
-123 118 -118 52 -210 82 -366 118 -136 32 -236 34 -314 5z"/>
</g>
</svg>
