<?xml version="1.0" standalone="no"?>
<!DOCTYPE svg PUBLIC "-//W3C//DTD SVG 20010904//EN"
 "http://www.w3.org/TR/2001/REC-SVG-20010904/DTD/svg10.dtd">
<svg version="1.0" xmlns="http://www.w3.org/2000/svg"
 width="100%" height="100%" viewBox="0 0 200.000000 200.000000"
 preserveAspectRatio="xMidYMid meet">

<g transform="translate(0.000000,200.000000) scale(0.100000,-0.100000)"
fill="#f34f29" stroke="none">
<path d="M965 1816 c-16 -8 -65 -49 -107 -93 l-78 -78 95 -95 c89 -88 97 -94
132 -92 73 5 137 -57 138 -135 1 -41 6 -49 89 -132 83 -83 89 -88 131 -88 51
0 88 -21 115 -66 55 -89 -11 -197 -119 -197 -72 0 -139 82 -126 153 6 30 0 38
-77 114 l-83 83 2 -226 3 -226 29 -33 c55 -63 49 -143 -15 -192 -42 -32 -108
-36 -149 -9 -34 23 -65 74 -65 109 0 39 28 95 56 114 l24 15 0 230 0 230 -25
20 c-38 30 -58 75 -52 118 5 36 1 41 -89 131 l-94 94 -256 -255 c-146 -145
-262 -269 -271 -289 -8 -20 -12 -45 -8 -63 10 -43 784 -813 827 -822 16 -3 43
0 61 8 41 18 783 762 796 798 24 63 18 70 -392 480 -215 214 -401 394 -414
399 -31 12 -42 11 -78 -5z"/>
</g>
</svg>
