<?xml version="1.0" standalone="no"?>
<!DOCTYPE svg PUBLIC "-//W3C//DTD SVG 20010904//EN"
 "http://www.w3.org/TR/2001/REC-SVG-20010904/DTD/svg10.dtd">
<svg version="1.0" xmlns="http://www.w3.org/2000/svg"
 width="100%" height="100%" viewBox="0 0 494.000000 178.000000"
 preserveAspectRatio="xMidYMid meet">

<g transform="translate(0.000000,178.000000) scale(0.100000,-0.100000)"
fill="#000000" stroke="none">
<path d="M1909 1607 c-148 -42 -225 -139 -239 -302 -9 -101 -17 -123 -56 -154
-79 -63 -194 -14 -210 90 -8 46 -20 51 -114 47 l-65 -3 1 -65 c2 -257 344
-380 531 -193 59 59 86 122 93 223 4 47 11 94 17 105 39 72 122 94 186 51 35
-24 47 -26 138 -26 99 0 100 0 93 23 -44 145 -228 245 -375 204z"/>
<path d="M2809 1607 c-149 -42 -225 -139 -239 -305 -9 -106 -24 -135 -81 -165
-41 -22 -91 -17 -131 13 -23 17 -42 20 -128 20 -100 0 -101 0 -94 -22 23 -76
90 -148 172 -186 78 -35 176 -36 253 0 122 56 177 140 190 289 8 98 21 129 72
159 58 36 133 16 173 -46 12 -17 20 -56 24 -113 7 -102 31 -159 92 -221 115
-119 305 -126 436 -15 33 28 92 119 92 143 0 9 -27 12 -100 12 -90 0 -103 -2
-137 -26 -43 -29 -94 -29 -138 0 -41 27 -53 57 -64 158 -11 111 -40 178 -100
230 -77 68 -202 100 -292 75z"/>
<path d="M3709 1607 c-98 -28 -179 -96 -214 -181 -8 -19 -15 -38 -15 -41 0 -3
45 -5 100 -5 90 0 102 2 137 26 74 50 169 11 195 -81 18 -64 22 -66 107 -63
l76 3 -1 65 c-1 111 -66 205 -179 256 -63 29 -146 38 -206 21z"/>
<path d="M2147 596 c-47 -17 -72 -39 -87 -77 -27 -64 11 -128 89 -148 20 -5
55 -15 79 -21 50 -13 62 -33 37 -60 -23 -26 -75 -26 -108 0 -26 20 -117 29
-117 11 0 -21 49 -78 80 -93 77 -39 213 -10 245 53 39 73 1 147 -86 168 -134
34 -153 48 -109 83 29 24 78 18 99 -12 10 -15 25 -20 57 -20 48 0 53 9 32 55
-26 57 -136 89 -211 61z"/>
<path d="M2384 583 c3 -10 26 -100 52 -201 l47 -183 51 3 50 3 32 120 c18 67
35 113 38 105 3 -8 19 -62 34 -120 l28 -105 50 -3 51 -3 48 188 c26 103 50
194 52 201 4 9 -10 12 -49 12 l-54 0 -23 -122 c-13 -68 -27 -126 -30 -131 -4
-4 -18 37 -31 90 -42 175 -36 163 -80 163 -44 0 -38 12 -80 -163 -13 -53 -27
-94 -31 -90 -3 5 -17 63 -30 131 l-23 122 -54 0 c-46 0 -53 -2 -48 -17z"/>
<path d="M2940 400 l0 -200 50 0 50 0 0 70 c0 68 1 70 25 70 21 0 31 -12 60
-70 l35 -70 55 0 c30 0 55 2 55 5 0 3 -16 37 -35 76 l-36 70 27 22 c45 39 49
132 7 179 -32 37 -77 48 -188 48 l-105 0 0 -200z m204 104 c9 -8 16 -26 16
-39 0 -36 -26 -55 -76 -55 l-44 0 0 55 0 55 44 0 c27 0 51 -6 60 -16z"/>
</g>
</svg>
