<svg id="visual" viewBox="0 0 960 540" width="100%" height="100%" xmlns="http://www.w3.org/2000/svg" xmlns:xlink="http://www.w3.org/1999/xlink" version="1.1">
    <path d="M0 381L22.8 378C45.7 375 91.3 369 137 354.3C182.7 339.7 228.3 316.3 274 307C319.7 297.7 365.3 302.3 411.2 328.2C457 354 503 401 548.8 419.5C594.7 438 640.3 428 686 406.7C731.7 385.3 777.3 352.7 823 342C868.7 331.3 914.3 342.7 937.2 348.3L960 354L960 0L937.2 0C914.3 0 868.7 0 823 0C777.3 0 731.7 0 686 0C640.3 0 594.7 0 548.8 0C503 0 457 0 411.2 0C365.3 0 319.7 0 274 0C228.3 0 182.7 0 137 0C91.3 0 45.7 0 22.8 0L0 0Z" fill="#caff61"></path>
    <path d="M0 225L22.8 248.2C45.7 271.3 91.3 317.7 137 327.8C182.7 338 228.3 312 274 293.3C319.7 274.7 365.3 263.3 411.2 274.7C457 286 503 320 548.8 333.5C594.7 347 640.3 340 686 322.5C731.7 305 777.3 277 823 276.2C868.7 275.3 914.3 301.7 937.2 314.8L960 328L960 0L937.2 0C914.3 0 868.7 0 823 0C777.3 0 731.7 0 686 0C640.3 0 594.7 0 548.8 0C503 0 457 0 411.2 0C365.3 0 319.7 0 274 0C228.3 0 182.7 0 137 0C91.3 0 45.7 0 22.8 0L0 0Z" fill="#94e66b"></path>
    <path d="M0 211L22.8 203C45.7 195 91.3 179 137 171C182.7 163 228.3 163 274 174.2C319.7 185.3 365.3 207.7 411.2 207.2C457 206.7 503 183.3 548.8 177C594.7 170.7 640.3 181.3 686 183.3C731.7 185.3 777.3 178.7 823 191.3C868.7 204 914.3 236 937.2 252L960 268L960 0L937.2 0C914.3 0 868.7 0 823 0C777.3 0 731.7 0 686 0C640.3 0 594.7 0 548.8 0C503 0 457 0 411.2 0C365.3 0 319.7 0 274 0C228.3 0 182.7 0 137 0C91.3 0 45.7 0 22.8 0L0 0Z" fill="#63cc73"></path>
    <path d="M0 109L22.8 110.3C45.7 111.7 91.3 114.3 137 122.2C182.7 130 228.3 143 274 152.8C319.7 162.7 365.3 169.3 411.2 174.3C457 179.3 503 182.7 548.8 178.5C594.7 174.3 640.3 162.7 686 150.8C731.7 139 777.3 127 823 137C868.7 147 914.3 179 937.2 195L960 211L960 0L937.2 0C914.3 0 868.7 0 823 0C777.3 0 731.7 0 686 0C640.3 0 594.7 0 548.8 0C503 0 457 0 411.2 0C365.3 0 319.7 0 274 0C228.3 0 182.7 0 137 0C91.3 0 45.7 0 22.8 0L0 0Z" fill="#36b076"></path>
    <path d="M0 127L22.8 126.8C45.7 126.7 91.3 126.3 137 119.5C182.7 112.7 228.3 99.3 274 94C319.7 88.7 365.3 91.3 411.2 89.8C457 88.3 503 82.7 548.8 84.5C594.7 86.3 640.3 95.7 686 94.8C731.7 94 777.3 83 823 85C868.7 87 914.3 102 937.2 109.5L960 117L960 0L937.2 0C914.3 0 868.7 0 823 0C777.3 0 731.7 0 686 0C640.3 0 594.7 0 548.8 0C503 0 457 0 411.2 0C365.3 0 319.7 0 274 0C228.3 0 182.7 0 137 0C91.3 0 45.7 0 22.8 0L0 0Z" fill="#009473"></path>
</svg>